<mxfile host="app.diagrams.net" modified="2020-11-20T18:01:19.013Z" agent="5.0 (Windows NT 10.0; Win64; x64) AppleWebKit/537.36 (KHTML, like Gecko) Brave Chrome/83.0.4103.116 Safari/537.36" etag="gy5LAId8Po50ED7QsUh2" version="13.10.0" type="github">
  <diagram id="9Hw6Vr-7h3pMYh5VBa0q" name="Page-1">
    <mxGraphModel dx="1087" dy="1061" grid="1" gridSize="10" guides="1" tooltips="1" connect="0" arrows="0" fold="1" page="1" pageScale="1" pageWidth="827" pageHeight="1500" math="0" shadow="0">
      <root>
        <mxCell id="0" />
        <mxCell id="1" parent="0" />
        <mxCell id="IbGQemOW2Y28JKWkVA5o-4" value="" style="rounded=0;whiteSpace=wrap;html=1;" parent="1" vertex="1">
          <mxGeometry x="94" y="150" width="640" height="1050" as="geometry" />
        </mxCell>
        <mxCell id="IbGQemOW2Y28JKWkVA5o-3" value="Page heading" style="rounded=0;whiteSpace=wrap;html=1;" parent="1" vertex="1">
          <mxGeometry x="134" y="170" width="560" height="50" as="geometry" />
        </mxCell>
        <mxCell id="IbGQemOW2Y28JKWkVA5o-5" value="" style="rounded=0;whiteSpace=wrap;html=1;" parent="1" vertex="1">
          <mxGeometry x="94" y="1200" width="640" height="100" as="geometry" />
        </mxCell>
        <mxCell id="IbGQemOW2Y28JKWkVA5o-24" value="Address" style="rounded=0;whiteSpace=wrap;html=1;" parent="1" vertex="1">
          <mxGeometry x="124" y="1215" width="200" height="70" as="geometry" />
        </mxCell>
        <mxCell id="IbGQemOW2Y28JKWkVA5o-25" value="Email" style="rounded=0;whiteSpace=wrap;html=1;" parent="1" vertex="1">
          <mxGeometry x="344" y="1225" width="170" height="20" as="geometry" />
        </mxCell>
        <mxCell id="IbGQemOW2Y28JKWkVA5o-26" value="Phone" style="rounded=0;whiteSpace=wrap;html=1;" parent="1" vertex="1">
          <mxGeometry x="344" y="1260" width="170" height="20" as="geometry" />
        </mxCell>
        <mxCell id="KosM86OykD-GGUn84nff-3" value="Social media&amp;nbsp; buttons" style="rounded=0;whiteSpace=wrap;html=1;" parent="1" vertex="1">
          <mxGeometry x="534" y="1215" width="170" height="70" as="geometry" />
        </mxCell>
        <mxCell id="ZPVpWKhxgH00Im1PIcdt-1" value="Map with links" style="rounded=0;whiteSpace=wrap;html=1;" parent="1" vertex="1">
          <mxGeometry x="134" y="290" width="560" height="320" as="geometry" />
        </mxCell>
        <mxCell id="ZPVpWKhxgH00Im1PIcdt-2" value="Map heading" style="rounded=0;whiteSpace=wrap;html=1;" parent="1" vertex="1">
          <mxGeometry x="134" y="240" width="250" height="40" as="geometry" />
        </mxCell>
        <mxCell id="ZPVpWKhxgH00Im1PIcdt-3" value="Ticketing heading" style="rounded=0;whiteSpace=wrap;html=1;" parent="1" vertex="1">
          <mxGeometry x="134" y="630" width="250" height="40" as="geometry" />
        </mxCell>
        <mxCell id="ZPVpWKhxgH00Im1PIcdt-4" value="" style="rounded=0;whiteSpace=wrap;html=1;" parent="1" vertex="1">
          <mxGeometry x="134" y="680" width="560" height="260" as="geometry" />
        </mxCell>
        <mxCell id="ZPVpWKhxgH00Im1PIcdt-5" value="Image" style="rounded=0;whiteSpace=wrap;html=1;" parent="1" vertex="1">
          <mxGeometry x="164" y="700" width="80" height="40" as="geometry" />
        </mxCell>
        <mxCell id="ZPVpWKhxgH00Im1PIcdt-6" value="Image" style="rounded=0;whiteSpace=wrap;html=1;" parent="1" vertex="1">
          <mxGeometry x="164" y="760" width="80" height="40" as="geometry" />
        </mxCell>
        <mxCell id="ZPVpWKhxgH00Im1PIcdt-7" value="Image" style="rounded=0;whiteSpace=wrap;html=1;" parent="1" vertex="1">
          <mxGeometry x="164" y="820" width="80" height="40" as="geometry" />
        </mxCell>
        <mxCell id="ZPVpWKhxgH00Im1PIcdt-8" value="Ticket info" style="rounded=0;whiteSpace=wrap;html=1;" parent="1" vertex="1">
          <mxGeometry x="274" y="700" width="390" height="40" as="geometry" />
        </mxCell>
        <mxCell id="ZPVpWKhxgH00Im1PIcdt-9" value="Ticket info" style="rounded=0;whiteSpace=wrap;html=1;" parent="1" vertex="1">
          <mxGeometry x="274" y="760" width="390" height="40" as="geometry" />
        </mxCell>
        <mxCell id="ZPVpWKhxgH00Im1PIcdt-10" value="Ticket info" style="rounded=0;whiteSpace=wrap;html=1;" parent="1" vertex="1">
          <mxGeometry x="274" y="820" width="390" height="40" as="geometry" />
        </mxCell>
        <mxCell id="ZPVpWKhxgH00Im1PIcdt-11" value="Some way of buying eg phone number" style="rounded=0;whiteSpace=wrap;html=1;" parent="1" vertex="1">
          <mxGeometry x="214" y="880" width="410" height="40" as="geometry" />
        </mxCell>
        <mxCell id="ZPVpWKhxgH00Im1PIcdt-12" value="Opening times table" style="rounded=0;whiteSpace=wrap;html=1;" parent="1" vertex="1">
          <mxGeometry x="134" y="1010" width="290" height="160" as="geometry" />
        </mxCell>
        <mxCell id="ZPVpWKhxgH00Im1PIcdt-13" value="Opening times heading" style="rounded=0;whiteSpace=wrap;html=1;" parent="1" vertex="1">
          <mxGeometry x="134" y="960" width="250" height="40" as="geometry" />
        </mxCell>
        <mxCell id="ZPVpWKhxgH00Im1PIcdt-14" value="Promo image/link?" style="rounded=0;whiteSpace=wrap;html=1;" parent="1" vertex="1">
          <mxGeometry x="444" y="960" width="250" height="210" as="geometry" />
        </mxCell>
        <mxCell id="GFB7XD_lrF9KcVLetmA--5" value="" style="rounded=0;whiteSpace=wrap;html=1;" parent="1" vertex="1">
          <mxGeometry x="94" y="30" width="640" height="70" as="geometry" />
        </mxCell>
        <mxCell id="GFB7XD_lrF9KcVLetmA--6" value="Logo" style="rounded=0;whiteSpace=wrap;html=1;" parent="1" vertex="1">
          <mxGeometry x="104" y="40" width="470" height="50" as="geometry" />
        </mxCell>
        <mxCell id="GFB7XD_lrF9KcVLetmA--7" value="Navigation" style="rounded=0;whiteSpace=wrap;html=1;" parent="1" vertex="1">
          <mxGeometry x="94" y="100" width="640" height="50" as="geometry" />
        </mxCell>
        <mxCell id="GFB7XD_lrF9KcVLetmA--8" value="Buy tickets button" style="rounded=0;whiteSpace=wrap;html=1;" parent="1" vertex="1">
          <mxGeometry x="584" y="40" width="140" height="50" as="geometry" />
        </mxCell>
      </root>
    </mxGraphModel>
  </diagram>
</mxfile>
